# xmcd
#
# Track frame offsets: 
#        150
#        15924
#        39311
#        61532
#        78663
#        101902
#        116341
#        133540
#        151416
#        166569
#        189568
#        212910
#        232238
#
# Disc length: 3302 seconds
#
# Revision: 2
# Processed by: cddbd v1.5.2PL0 Copyright (c) Steve Scherf et al.
# Submitted via: ExactAudioCopy v1.3
#
DISCID=9e0ce40d
DTITLE=Ketil Bjørnstad - A Suite of Poems - Lars Saabye Christensen
DYEAR=2018
DGENRE=Jazz
TTITLE0=Mayflower, New York
TTITLE1=Duxton, Melbourne
TTITLE2=Kempinski, Berlin
TTITLE3=L'Hotel, Paris
TTITLE4=Palace, Copenhagen
TTITLE5=Astor Crowne, New Orleans
TTITLE6=The Grand, Krakow
TTITLE7=Palazzo Londra, Venice
TTITLE8=Vier Jahreszeiten, Hamburg
TTITLE9=Savoy, Lisbon
TTITLE10=Mayday Inn, Hong Kong
TTITLE11=Lutetia, Paris
TTITLE12=Schloss Elmau
EXTD=YEAR: 2018
EXTT0=
EXTT1=
EXTT2=
EXTT3=
EXTT4=
EXTT5=
EXTT6=
EXTT7=
EXTT8=
EXTT9=
EXTT10=
EXTT11=
EXTT12=
PLAYORDER=
